# xmcd
#
# Track frame offsets: 
#        150
#        17563
#        31263
#        48674
#        59953
#        79903
#        93249
#        111569
#        125720
#        137294
#        148622
#        169430
#
# Disc length: 2416 seconds
#
# Revision: 0
# Processed by: cddbd v1.5.2PL0 Copyright (c) Steve Scherf et al.
# Submitted via: ExactAudioCopy v0.99pb5
#
DISCID=b0096e0c
DTITLE=John Fogerty - The Blue Ridge Rangers Rides Again
DYEAR=2009
DGENRE=Country
TTITLE0=Paradise
TTITLE1=Never Ending Song Of Love
TTITLE2=Garden Party
TTITLE3=I Don't Care (Just As Long As You Love Me)
TTITLE4=Back Home Again
TTITLE5=I'll Be There (If Ever You Want Me)
TTITLE6=Change In The Weather
TTITLE7=Moody River
TTITLE8=Heaven's Just A Sin Away
TTITLE9=Fallin' Fallin' Fallin'
TTITLE10=Haunted House
TTITLE11=When Will I Be Loved
EXTD=
EXTT0=
EXTT1=
EXTT2=
EXTT3=
EXTT4=
EXTT5=
EXTT6=
EXTT7=
EXTT8=
EXTT9=
EXTT10=
EXTT11=
PLAYORDER=
